<?xml version="1.0" standalone="no"?>
<!DOCTYPE svg PUBLIC "-//W3C//DTD SVG 20010904//EN"
 "http://www.w3.org/TR/2001/REC-SVG-20010904/DTD/svg10.dtd">
<svg version="1.0" xmlns="http://www.w3.org/2000/svg"
 width="900.000000pt" height="927.000000pt" viewBox="0 0 900.000000 927.000000"
 preserveAspectRatio="xMidYMid meet">
<metadata>
Created by potrace 1.10, written by Peter Selinger 2001-2011
</metadata>
<g transform="translate(0.000000,677.000000) scale(0.04,-0.04)"
<!--translate(0.000000,677.000000) scale(0.04,-0.04)-->
fill="#FFFFFF" stroke="none">
<path d="M5130 9010 l-135 -5 55 -18 c30 -9 75 -21 100 -26 54 -11 227 -59
255 -72 11 -4 49 -18 85 -29 60 -20 107 -39 154 -62 10 -6 46 -20 80 -33 71
-27 272 -130 378 -194 161 -97 361 -249 523 -396 192 -174 293 -284 429 -465
100 -132 226 -315 226 -327 0 -4 6 -14 14 -22 45 -53 256 -492 256 -535 0 -5
13 -43 29 -85 15 -42 35 -101 44 -131 44 -151 42 -142 91 -375 8 -38 18 -101
21 -140 4 -38 11 -90 17 -115 10 -45 13 -641 3 -683 -9 -41 -15 -82 -21 -142
-3 -33 -12 -91 -20 -130 -8 -38 -21 -104 -30 -145 -8 -41 -20 -91 -26 -110 -7
-19 -15 -53 -19 -75 -8 -44 -17 -72 -60 -186 -16 -41 -29 -82 -29 -90 0 -8 -7
-23 -15 -33 -8 -11 -15 -26 -15 -34 0 -28 -195 -428 -226 -463 -8 -8 -14 -19
-14 -22 0 -24 -205 -316 -318 -452 -94 -113 -331 -348 -434 -429 -188 -147
-217 -168 -282 -208 -38 -24 -80 -51 -95 -60 -14 -10 -33 -21 -41 -25 -8 -4
-31 -18 -50 -31 -19 -13 -57 -35 -85 -48 -27 -14 -68 -35 -90 -47 -22 -13 -96
-47 -165 -76 -69 -29 -129 -56 -135 -60 -5 -4 -37 -15 -70 -25 -33 -10 -71
-23 -85 -28 -98 -39 -454 -122 -600 -139 -41 -5 -91 -11 -110 -14 -112 -13
-408 -16 -525 -5 -342 32 -461 51 -615 95 -376 108 -637 221 -914 398 -113 71
-261 174 -302 209 -28 24 -64 54 -81 68 -106 86 -161 139 -270 255 -67 71
-141 155 -165 185 -79 101 -103 132 -123 160 -45 62 -155 229 -184 280 -46 82
-192 371 -201 400 -5 14 -18 50 -30 80 -39 103 -51 135 -70 200 -11 36 -27 85
-34 110 -8 25 -24 88 -36 140 -12 52 -26 108 -31 124 -5 16 -9 48 -9 72 0 23
-5 55 -11 71 -6 15 -15 75 -20 133 -5 58 -13 146 -19 195 -12 111 -12 315 0
455 24 271 27 297 66 480 20 93 72 293 89 340 7 19 21 62 31 95 9 33 30 86 46
117 15 32 28 64 28 71 0 8 13 41 29 73 16 32 46 94 68 137 49 101 88 174 113
212 11 17 23 37 27 45 27 56 244 358 314 435 20 22 62 69 95 105 32 36 106
111 164 166 188 181 263 240 540 424 168 112 524 281 705 335 174 52 246 71
298 80 21 3 35 10 32 16 -4 5 -104 9 -243 9 -182 0 -247 -3 -282 -15 -134 -44
-170 -56 -220 -75 -30 -12 -64 -24 -75 -27 -11 -4 -29 -12 -40 -20 -11 -7 -25
-13 -32 -13 -27 0 -334 -151 -428 -210 -16 -10 -50 -29 -75 -42 -25 -12 -60
-33 -78 -47 -18 -13 -50 -33 -71 -45 -62 -35 -209 -140 -331 -236 -248 -198
-511 -453 -673 -654 -18 -22 -55 -67 -82 -100 -51 -61 -125 -158 -158 -206
-97 -144 -172 -259 -211 -325 -26 -44 -51 -87 -56 -95 -16 -27 -140 -278 -140
-284 0 -2 -20 -47 -44 -98 -24 -51 -58 -131 -76 -178 -17 -47 -38 -101 -45
-120 -35 -92 -105 -328 -127 -430 -5 -25 -16 -67 -23 -95 -18 -72 -42 -203
-59 -330 -8 -60 -20 -148 -27 -195 -17 -122 -24 -755 -9 -850 6 -41 15 -124
20 -183 5 -59 12 -113 16 -119 4 -6 10 -47 15 -91 8 -84 10 -93 60 -302 33
-135 45 -180 86 -305 13 -41 29 -93 34 -115 6 -22 14 -44 20 -49 5 -6 9 -20 9
-32 0 -13 4 -26 10 -29 5 -3 15 -25 21 -48 6 -23 23 -69 39 -102 15 -33 38
-85 51 -115 26 -60 126 -258 181 -360 125 -231 330 -521 522 -739 144 -163
366 -383 482 -475 54 -44 130 -105 167 -135 84 -67 166 -124 277 -192 47 -29
87 -56 90 -60 20 -27 446 -243 591 -299 30 -11 68 -27 86 -35 17 -8 36 -15 42
-15 6 0 19 -4 29 -10 14 -8 215 -75 357 -119 69 -22 196 -50 290 -66 55 -9
136 -22 180 -30 181 -32 312 -45 540 -50 241 -6 552 6 655 24 30 6 100 17 155
26 232 39 387 69 450 90 22 7 74 23 115 35 41 12 84 25 95 30 11 5 47 17 80
26 67 19 225 81 240 95 5 5 18 9 28 9 16 0 352 160 420 200 40 23 53 30 72 39
11 5 37 21 58 35 21 14 40 26 42 26 11 0 205 131 339 230 112 83 176 135 275
225 37 33 92 83 124 110 122 106 424 449 551 626 48 67 134 193 151 221 5 9
34 55 64 103 84 136 200 358 279 535 55 122 72 164 72 179 0 9 4 21 9 27 8 9
64 158 81 219 5 17 19 62 30 100 12 39 25 88 29 110 4 22 12 56 18 75 12 37
39 154 47 205 3 17 9 53 15 80 20 104 33 193 41 295 5 58 14 159 21 225 13
138 7 542 -10 650 -6 39 -15 113 -21 165 -17 159 -28 239 -34 248 -3 6 -10 43
-16 83 -6 41 -15 88 -20 104 -5 17 -19 71 -30 120 -25 104 -24 101 -90 300
-67 204 -133 372 -195 495 -12 25 -32 65 -44 90 -30 62 -103 197 -129 240 -12
19 -26 45 -32 58 -5 12 -26 48 -47 80 -21 31 -42 65 -48 74 -43 71 -168 244
-189 263 -12 10 -120 147 -163 207 -45 62 -341 357 -460 460 -227 196 -316
268 -331 268 -5 0 -15 6 -21 14 -22 26 -336 231 -395 257 -12 5 -48 25 -81 44
-33 20 -94 51 -135 70 -41 20 -82 40 -90 45 -36 22 -167 79 -295 127 -22 9
-49 19 -60 24 -21 9 -192 65 -284 93 -56 17 -232 19 -541 6z m977 -286 c-9 -9
-28 6 -21 18 4 6 10 6 17 -1 6 -6 8 -13 4 -17z m118 -33 c124 -60 271 -133
290 -144 41 -24 138 -83 164 -99 14 -9 44 -26 66 -38 22 -12 56 -35 76 -51 20
-16 40 -29 43 -29 7 0 145 -101 167 -122 8 -7 30 -24 50 -38 128 -88 433 -372
611 -568 113 -124 264 -317 343 -437 22 -33 43 -61 47 -63 5 -2 8 -8 8 -13 0
-6 19 -40 43 -77 23 -37 48 -76 55 -87 6 -11 17 -29 22 -40 6 -11 26 -47 45
-80 45 -78 165 -321 165 -334 0 -5 7 -22 15 -38 48 -94 73 -158 146 -383 73
-227 93 -303 133 -505 62 -324 77 -475 79 -835 2 -327 -30 -728 -62 -788 -6
-11 -11 -37 -11 -58 0 -20 -6 -60 -14 -88 -8 -28 -24 -89 -35 -136 -34 -143
-43 -174 -57 -208 -8 -18 -14 -45 -14 -60 0 -16 -7 -37 -15 -48 -8 -10 -15
-29 -15 -41 0 -12 -4 -24 -9 -27 -4 -3 -18 -36 -30 -73 -22 -66 -39 -109 -68
-165 -7 -14 -13 -31 -13 -37 0 -11 -81 -189 -100 -221 -5 -8 -21 -37 -34 -65
-14 -27 -41 -77 -61 -110 -19 -33 -38 -67 -42 -75 -50 -105 -298 -467 -397
-581 -17 -19 -49 -57 -71 -85 -188 -232 -524 -539 -809 -738 -38 -27 -79 -57
-90 -68 -17 -16 -280 -178 -289 -178 -2 0 -52 -27 -111 -60 -59 -33 -112 -60
-118 -60 -5 0 -22 -7 -36 -14 -34 -19 -162 -76 -169 -76 -3 0 -19 -6 -36 -14
-18 -8 -41 -16 -52 -19 -11 -3 -63 -23 -115 -45 -52 -21 -106 -42 -120 -45
-14 -3 -47 -13 -75 -21 -169 -52 -330 -93 -398 -101 -31 -4 -60 -11 -63 -16
-3 -5 -21 -9 -41 -9 -19 0 -65 -6 -102 -14 -130 -29 -291 -40 -621 -44 -268
-3 -358 0 -450 13 -63 8 -167 23 -230 31 -118 16 -242 39 -296 55 -16 5 -50
13 -75 18 -78 17 -152 38 -209 59 -30 11 -71 24 -90 27 -19 4 -60 19 -90 32
-30 13 -82 34 -115 45 -33 11 -74 26 -92 34 -17 8 -33 14 -36 14 -3 0 -49 20
-101 45 -53 25 -101 45 -106 45 -6 0 -27 11 -48 23 -20 13 -73 43 -117 66 -44
23 -93 51 -110 61 -16 11 -46 27 -65 37 -19 9 -83 52 -143 95 -60 43 -111 78
-114 78 -5 0 -125 90 -133 100 -3 4 -39 33 -80 64 -41 32 -104 85 -140 119
-36 33 -94 88 -130 121 -35 33 -109 110 -164 171 -55 60 -102 112 -105 115
-21 18 -197 248 -257 335 -83 120 -174 256 -174 259 0 2 -21 41 -47 87 -75
135 -156 298 -192 384 -18 44 -39 94 -46 110 -14 31 -67 164 -89 225 -16 43
-70 216 -91 290 -9 30 -22 76 -30 101 -8 26 -15 58 -15 71 0 13 -6 47 -14 74
-7 27 -21 96 -30 154 -9 58 -23 146 -31 195 -51 315 -50 779 0 1175 8 63 17
133 19 155 7 59 25 153 42 211 8 28 14 61 14 74 0 12 7 45 16 74 30 96 37 121
45 156 7 33 21 78 40 125 4 11 12 36 18 55 5 19 19 60 31 90 12 30 26 69 31
87 5 18 14 35 19 38 6 4 10 13 10 21 0 8 14 42 30 76 17 33 30 65 30 72 0 14
151 314 208 416 51 90 55 96 109 178 24 35 43 66 43 68 0 3 19 31 43 62 23 31
58 81 77 109 19 29 38 53 41 53 4 0 19 18 33 41 29 43 217 257 346 393 87 91
376 342 500 434 166 122 210 152 225 152 23 0 18 -16 -12 -35 -41 -27 -278
-268 -379 -385 -103 -120 -264 -331 -286 -375 -9 -16 -37 -61 -62 -100 -25
-38 -46 -74 -46 -78 0 -5 -13 -27 -28 -50 -34 -51 -138 -264 -180 -367 -60
-148 -110 -288 -122 -340 -4 -19 -13 -48 -19 -65 -14 -41 -35 -125 -55 -220
-10 -44 -22 -97 -27 -117 -5 -21 -14 -84 -20 -140 -5 -57 -14 -125 -19 -153
-16 -87 -12 -636 5 -755 41 -280 104 -571 148 -680 5 -14 13 -38 18 -55 9 -35
35 -109 50 -145 23 -53 37 -87 54 -130 40 -102 183 -380 210 -410 8 -9 15 -20
15 -23 0 -4 30 -53 68 -108 37 -56 72 -108 77 -117 12 -20 116 -156 165 -217
92 -114 237 -263 360 -370 30 -26 69 -60 85 -74 158 -141 517 -370 734 -468
53 -25 137 -60 186 -80 50 -19 97 -39 105 -43 14 -6 179 -58 299 -94 29 -9 62
-16 72 -16 11 0 45 -6 77 -14 159 -40 204 -47 417 -67 145 -13 618 -6 725 11
90 14 210 38 265 52 22 5 63 13 90 18 28 4 84 18 125 30 41 12 89 25 105 30
17 4 41 12 55 17 14 6 52 19 85 28 33 10 71 24 85 31 14 7 43 20 65 29 44 18
121 54 231 108 84 41 87 43 186 101 43 25 80 46 84 46 3 0 23 13 44 30 21 16
40 30 43 30 8 0 100 61 112 74 6 6 21 18 35 27 44 28 233 181 289 233 171 162
336 339 406 436 130 180 166 232 189 270 15 25 47 77 71 115 59 93 224 426
246 494 4 14 17 51 29 81 31 81 52 141 60 175 7 27 42 150 70 245 14 47 39
188 50 280 5 41 14 102 21 135 7 38 12 179 13 390 0 339 -5 414 -51 650 -23
121 -67 307 -85 360 -5 17 -14 46 -18 65 -8 35 -32 106 -49 145 -50 116 -71
169 -71 177 0 15 -130 276 -188 378 -146 255 -364 540 -572 748 -112 112 -280
258 -390 339 -47 35 -97 72 -113 84 -57 44 -126 88 -175 114 -95 50 -47 64 53
16z"/>
<path d="M7854 3783 c-16 -52 -104 -177 -136 -194 -23 -13 -14 -29 16 -29 44
0 146 147 146 211 0 25 -19 34 -26 12z"/>
<path d="M8015 3635 c-39 -21 -55 -43 -55 -75 0 -31 49 -111 93 -151 58 -53
161 -32 187 37 12 31 22 30 58 -7 32 -33 62 -104 62 -146 0 -33 -58 -169 -93
-219 -21 -30 -27 -46 -20 -58 8 -15 11 -14 30 6 11 13 35 49 53 82 17 32 45
81 61 108 17 28 29 63 29 83 0 83 -83 234 -148 269 -148 80 -208 97 -257 71z
m125 -108 c0 -13 -9 -32 -21 -43 -17 -16 -22 -16 -29 -4 -12 19 -12 27 0 51
15 28 50 25 50 -4z"/>
<path d="M7607 3494 c-9 -9 11 -56 35 -81 12 -13 37 -26 57 -29 72 -13 313
-124 416 -191 48 -32 85 -42 85 -25 0 18 -30 69 -52 88 -54 48 -381 214 -422
214 -8 0 -27 7 -42 15 -30 15 -66 20 -77 9z"/>
<path d="M7413 3437 c-13 -18 -23 -37 -23 -42 0 -5 -12 -19 -27 -31 -33 -26
-25 -39 29 -49 33 -6 40 -3 82 35 25 24 46 50 46 59 0 18 -51 61 -72 61 -7 0
-23 -15 -35 -33z"/>
<path d="M1101 3401 c-24 -6 -23 -7 12 -31 44 -30 66 -65 50 -81 -20 -20 -113
0 -221 45 -62 27 -105 40 -108 34 -10 -16 45 -63 120 -103 l69 -37 116 5 c124
5 194 23 199 51 5 22 -39 69 -94 101 -42 25 -92 31 -143 16z"/>
<path d="M7518 3299 c-2 -7 -25 -11 -55 -11 -44 1 -52 -1 -56 -20 -7 -27 23
-79 61 -104 16 -11 47 -19 77 -20 41 -1 61 -8 111 -42 34 -23 95 -53 135 -66
96 -30 137 -54 227 -127 19 -16 15 -26 -22 -48 -27 -17 -50 -21 -121 -21 -83
0 -138 12 -222 47 -17 7 -35 13 -40 13 -6 0 -30 11 -54 25 -86 48 -119 57
-119 30 0 -28 64 -74 188 -136 67 -34 125 -66 128 -71 14 -23 6 -105 -14 -144
-21 -42 -70 -86 -109 -98 -27 -9 -30 -41 -5 -51 9 -4 53 -9 98 -12 77 -5 81
-5 100 19 11 14 29 51 39 82 17 49 18 60 6 89 -7 17 -14 43 -15 57 -1 23 3 25
54 31 126 15 219 53 239 97 12 26 9 44 -20 108 -28 64 -151 150 -296 209 -48
20 -97 40 -108 45 -11 5 -41 18 -67 29 -27 11 -48 25 -48 31 0 6 -10 24 -22
40 -22 30 -63 41 -70 19z"/>
<path d="M1367 3134 c-3 -3 -3 -12 0 -20 8 -21 146 -121 214 -155 54 -27 60
-33 55 -55 -8 -31 20 -33 58 -3 14 11 41 25 60 30 44 12 86 46 86 69 0 56 -88
69 -143 20 -38 -33 -73 -38 -103 -15 -10 8 -25 15 -32 15 -7 0 -51 27 -98 60
-90 64 -88 63 -97 54z"/>
<path d="M7224 3126 c-3 -7 -4 -33 -2 -57 l3 -44 55 0 55 0 3 34 c2 19 1 44
-2 57 -6 21 -12 24 -57 24 -33 0 -51 -5 -55 -14z"/>
<path d="M680 3056 c0 -64 55 -107 182 -141 51 -14 86 -16 143 -12 72 6 76 6
84 -16 32 -83 48 -111 77 -136 l32 -29 51 18 c70 23 121 66 154 131 35 66 33
104 -6 133 -25 18 -42 21 -140 21 -99 0 -121 -3 -189 -29 -73 -27 -81 -28
-125 -16 -27 7 -93 34 -148 61 -55 27 -103 49 -107 49 -5 0 -8 -15 -8 -34z
m605 -112 c29 -19 33 -59 8 -86 -23 -26 -40 -22 -58 12 -36 71 -8 112 50 74z"/>
<path d="M7256 2800 c9 -112 2 -123 -70 -118 l-51 3 -3 -57 c-3 -57 -2 -58 30
-72 18 -7 60 -22 92 -32 33 -10 73 -29 88 -42 73 -62 12 -222 -183 -482 -31
-41 -69 -91 -85 -110 -37 -45 -208 -216 -254 -254 -75 -63 -217 -165 -260
-188 -25 -13 -64 -36 -88 -51 -23 -15 -59 -37 -80 -48 -20 -11 -50 -29 -67
-39 -30 -19 -228 -118 -315 -158 -25 -11 -70 -28 -100 -38 -30 -10 -89 -30
-130 -45 -87 -31 -159 -47 -285 -63 l-90 -12 34 -33 c50 -47 87 -64 130 -58
20 3 71 10 113 16 43 5 86 15 97 20 11 6 33 11 50 11 17 0 48 6 68 14 21 7 65
21 98 31 33 10 119 48 190 83 72 36 144 72 160 80 17 8 44 25 60 37 17 12 68
45 115 73 101 63 228 152 295 207 232 194 314 277 448 452 26 34 47 65 47 68
0 4 12 26 28 49 78 116 124 241 124 338 0 84 -14 119 -79 188 -30 31 -33 39
-26 70 19 86 -2 172 -53 223 -48 48 -56 38 -48 -63z"/>
<path d="M1844 2860 c-30 -12 -74 -72 -130 -175 -47 -89 -113 -183 -133 -188
-20 -5 -81 17 -81 30 0 5 9 33 20 63 41 111 18 160 -75 160 -53 0 -91 -14
-140 -50 -31 -23 -85 -93 -85 -110 0 -9 18 -34 40 -55 22 -21 40 -47 40 -58 0
-23 -56 -47 -111 -47 -80 0 -222 94 -296 195 -17 25 -22 27 -28 14 -4 -10 5
-34 23 -60 16 -24 50 -76 75 -116 45 -68 49 -72 93 -79 73 -11 174 1 229 26
47 22 53 22 135 10 104 -16 112 -22 104 -69 -12 -66 -31 -91 -73 -91 -13 0
-48 -14 -77 -31 -91 -52 -117 -104 -71 -147 24 -22 81 -30 92 -13 3 5 -8 19
-25 31 -16 12 -30 28 -30 36 0 19 73 71 112 79 28 7 35 2 82 -48 52 -55 139
-107 181 -107 18 0 34 -16 69 -69 27 -40 55 -71 68 -75 36 -9 112 -7 167 5 42
9 54 8 75 -6 14 -9 28 -25 31 -36 9 -26 72 -89 90 -89 29 0 91 38 117 72 60
79 75 205 28 239 -24 19 -27 18 -100 -2 -80 -23 -195 -72 -205 -89 -10 -16
-88 -12 -115 7 -56 38 -53 54 16 89 71 36 124 93 124 135 0 55 -25 87 -113
145 -44 29 -60 34 -111 34 -41 0 -68 -6 -91 -20 -54 -33 -54 -59 -1 -109 30
-29 35 -83 10 -119 -22 -32 -34 -28 -86 26 -32 33 -49 61 -57 95 -11 46 -10
50 31 130 23 45 55 98 70 118 15 20 28 39 28 42 0 3 17 32 38 64 32 47 102
185 102 199 0 11 -38 20 -56 14z m-416 -249 c4 -35 -7 -39 -43 -15 -27 17 -34
59 -12 67 22 9 52 -19 55 -52z m825 -605 c18 -14 24 -71 8 -80 -29 -18 -77 45
-60 77 12 20 28 21 52 3z"/>
<path d="M1922 2538 c2 -16 21 -32 68 -55 61 -31 70 -33 170 -33 58 0 115 3
128 6 35 10 20 29 -24 31 -106 6 -234 28 -282 50 -64 28 -64 28 -60 1z"/>
<path d="M6843 2533 c-7 -2 -13 -22 -13 -43 0 -64 6 -70 66 -70 l54 0 0 38 c0
71 -8 82 -54 81 -22 0 -47 -3 -53 -6z"/>
<path d="M2474 2415 c-63 -45 -79 -81 -51 -119 11 -15 17 -16 40 -5 35 16 43
7 22 -25 -16 -24 -22 -26 -97 -26 -44 0 -88 5 -99 11 -20 10 -49 -2 -49 -22 0
-17 76 -41 145 -46 87 -6 167 21 226 77 47 44 49 72 7 103 -26 19 -28 19 -70
2 -23 -9 -46 -22 -50 -28 -5 -7 -8 -3 -8 10 0 13 13 32 33 47 43 33 97 34 137
4 25 -18 30 -29 30 -63 0 -29 -6 -47 -20 -60 -30 -27 -22 -59 14 -63 63 -8
122 102 79 150 -10 12 -38 30 -63 41 -24 11 -50 26 -58 33 -8 8 -35 14 -66 14
-44 0 -60 -6 -102 -35z"/>
<path d="M7064 2338 c-11 -13 -28 -39 -38 -58 -59 -106 -219 -289 -356 -404
-105 -89 -402 -296 -424 -296 -3 0 -25 -12 -49 -27 -57 -36 -296 -153 -314
-153 -3 0 -19 -6 -36 -14 -75 -33 -267 -80 -280 -67 -15 15 3 36 74 90 67 51
118 107 153 170 29 53 26 160 -7 233 -51 111 -144 188 -228 188 -66 0 -93 -15
-118 -65 -40 -81 -6 -213 72 -280 22 -19 49 -35 60 -35 30 0 85 46 108 92 l20
40 25 -23 c53 -50 32 -83 -131 -206 -87 -66 -96 -77 -129 -155 -31 -70 -11
-151 46 -186 23 -14 34 -14 85 -3 32 7 78 19 103 27 25 8 74 23 110 34 91 27
137 44 195 73 28 13 85 41 128 61 106 49 236 131 376 236 162 121 161 120 306
265 138 138 207 222 244 295 12 25 26 52 30 60 14 25 31 85 31 108 0 29 -31
29 -56 0z m-1467 -495 c4 -11 -4 -25 -27 -45 -42 -34 -60 -36 -60 -5 0 24 22
49 50 60 25 9 30 8 37 -10z"/>
<path d="M7680 2340 c-8 -5 -29 -10 -46 -10 -42 0 -52 -15 -56 -85 l-3 -60
-40 -3 c-54 -5 -65 -17 -65 -69 0 -54 12 -60 84 -39 l56 17 0 53 c0 62 10 74
78 91 52 13 63 36 43 88 -11 28 -26 33 -51 17z"/>
<path d="M6319 2222 c-30 -25 -49 -92 -49 -174 0 -76 -4 -78 -60 -48 -86 45
-127 61 -155 58 -28 -3 -30 -6 -33 -45 -2 -33 2 -46 20 -63 20 -18 30 -20 71
-15 30 5 60 2 80 -6 68 -26 123 -50 150 -65 34 -19 35 -13 1 91 -27 85 -28
124 -1 187 11 27 23 38 46 43 36 8 38 15 13 38 -24 22 -54 21 -83 -1z"/>
<path d="M2538 2123 c-45 -19 -47 -32 -12 -90 27 -47 23 -46 108 -21 36 11 40
10 58 -12 44 -56 59 -70 72 -70 15 0 66 38 66 49 0 14 -61 99 -74 104 -8 3
-31 -3 -52 -14 -21 -10 -44 -19 -50 -19 -7 0 -24 20 -38 45 -30 50 -27 49 -78
28z"/>
<path d="M2876 2111 c-3 -5 5 -16 19 -25 40 -27 123 -39 212 -32 83 6 182 36
173 52 -6 11 -27 10 -147 -5 -78 -10 -100 -10 -144 3 -59 18 -105 21 -113 7z"/>
<path d="M1638 1968 c-23 -18 -36 -108 -16 -108 25 0 51 38 52 76 1 41 -11 51
-36 32z"/>
<path d="M2968 1931 c-37 -12 -86 -43 -92 -57 -9 -23 29 -41 97 -47 60 -4 73
-9 123 -47 62 -46 68 -73 19 -78 -35 -3 -148 -27 -221 -48 -104 -29 -116 -19
-134 106 -15 106 -25 116 -89 94 -119 -41 -188 -128 -162 -207 8 -23 26 -41
64 -63 28 -17 60 -34 70 -37 9 -4 17 -17 17 -30 0 -21 -7 -25 -88 -40 -112
-21 -195 -22 -280 0 -93 23 -157 65 -188 125 -18 35 -17 116 1 148 8 14 14 33
15 43 0 36 -35 12 -77 -53 -37 -55 -43 -72 -43 -116 0 -96 63 -193 153 -232
101 -45 165 -50 302 -23 71 14 161 62 234 125 34 29 72 56 84 59 12 3 36 10
52 15 17 6 57 18 90 26 33 8 87 21 120 30 147 36 262 45 342 24 44 -11 47 -10
70 16 31 37 29 53 -9 61 -54 12 -170 74 -213 114 -71 68 -194 112 -257 92z
m-288 -203 c12 -22 12 -30 2 -40 -23 -23 -71 24 -59 56 10 24 38 16 57 -16z"/>
<path d="M3788 1873 c-32 -37 -38 -64 -38 -180 0 -142 -7 -193 -29 -201 -24
-9 -113 -76 -136 -103 -40 -47 -55 -86 -55 -142 0 -69 -11 -79 -70 -66 -57 13
-110 47 -147 95 -25 34 -28 45 -28 117 0 98 -5 101 -125 95 -128 -8 -165 -40
-153 -136 4 -36 2 -52 -8 -58 -27 -17 -84 -36 -134 -44 -27 -4 -58 -11 -67
-15 -10 -4 -86 -12 -170 -19 l-153 -12 50 -24 c45 -21 64 -23 180 -23 123 -1
134 1 210 31 44 18 88 32 99 32 10 0 37 -16 58 -36 58 -52 112 -74 149 -61 25
10 37 7 91 -20 120 -61 137 -66 196 -59 30 4 62 11 72 16 23 12 107 13 114 1
7 -11 154 -81 172 -81 34 0 99 122 111 210 4 28 -2 45 -29 85 -18 28 -44 63
-58 78 -44 51 -60 112 -61 232 l-1 110 31 26 c36 30 43 80 13 101 -10 7 -27
25 -36 41 -21 32 -28 33 -48 10z m-590 -499 c5 -9 7 -27 4 -40 -6 -32 -41 -32
-72 1 l-23 25 34 14 c43 19 46 19 57 0z m523 -25 c46 -33 34 -92 -22 -104 -62
-14 -105 65 -56 106 29 24 42 24 78 -2z m149 -179 c64 -64 49 -90 -30 -50 -46
24 -62 47 -49 72 15 28 35 22 79 -22z"/>
<path d="M4781 1864 c-27 -35 -26 -48 5 -90 37 -48 43 -47 132 34 37 33 19 39
-37 12 -27 -12 -54 -19 -60 -16 -17 11 -13 34 10 50 12 8 18 19 14 25 -11 19
-43 12 -64 -15z"/>
<path d="M4074 1814 l-27 -35 13 -82 c9 -55 13 -166 12 -334 -1 -280 3 -295
53 -200 26 50 27 58 32 252 4 133 2 223 -6 270 -7 39 -15 91 -18 118 -7 57
-22 60 -59 11z"/>
<path d="M4549 1774 c-30 -37 -128 -102 -184 -123 -87 -33 -109 -45 -104 -56
8 -19 92 -7 148 22 61 31 186 146 176 163 -9 14 -20 13 -36 -6z"/>
<path d="M2385 1770 c-3 -5 -17 -10 -31 -10 -14 0 -27 -7 -30 -15 -7 -17 -40
-20 -49 -5 -3 6 -13 10 -21 10 -27 0 -11 -91 19 -103 13 -5 41 -1 124 18 28 6
45 59 30 93 -11 23 -31 29 -42 12z"/>
<path d="M4995 1735 c-17 -43 -19 -78 -5 -103 15 -28 37 -84 55 -142 10 -30
22 -66 27 -80 6 -14 17 -54 25 -90 8 -36 21 -94 30 -130 8 -36 17 -83 20 -105
3 -22 9 -44 14 -49 10 -12 48 69 49 104 0 24 -21 135 -41 215 -6 22 -14 58
-18 80 -10 52 -42 147 -52 160 -5 5 -9 17 -9 27 0 23 -48 124 -65 138 -11 9
-17 4 -30 -25z"/>
<path d="M5250 1686 c-8 -11 -10 -30 -6 -60 7 -44 8 -45 52 -52 26 -4 50 -2
55 3 6 6 9 34 7 64 l-3 54 -46 3 c-32 2 -50 -2 -59 -12z"/>
<path d="M4859 1442 c-15 -9 -57 -50 -94 -90 -51 -54 -84 -80 -132 -102 -36
-17 -70 -30 -77 -30 -17 0 -39 26 -71 85 -35 63 -59 90 -97 106 -25 10 -35 10
-61 -6 -18 -10 -40 -27 -50 -39 -31 -36 -87 -157 -87 -186 0 -35 40 -71 101
-89 81 -24 88 -28 82 -50 -9 -35 -121 -148 -169 -172 -50 -24 -146 -30 -216
-15 -31 7 -38 6 -38 -6 0 -15 153 -98 182 -98 57 0 279 215 333 325 11 21 47
41 125 70 25 9 59 23 76 30 76 32 96 30 155 -19 57 -47 90 -56 120 -33 27 20
59 103 59 150 0 45 -31 149 -51 173 -16 19 -59 17 -90 -4z m46 -147 c0 -33 -4
-41 -20 -43 -30 -4 -69 40 -60 68 5 17 13 21 43 18 36 -3 37 -4 37 -43z m-535
-41 c21 -21 22 -27 10 -34 -20 -13 -47 -12 -70 0 -17 9 -18 14 -8 35 14 32 38
32 68 -1z"/>
<path d="M4185 8899 c-240 -13 -537 -73 -755 -151 -30 -11 -70 -23 -89 -28
-18 -5 -38 -13 -44 -19 -6 -6 -17 -11 -25 -11 -31 0 -400 -181 -485 -239 -38
-25 -76 -50 -85 -56 -15 -9 -162 -113 -245 -173 -80 -58 -354 -323 -458 -443
-48 -55 -170 -216 -219 -289 -8 -12 -23 -32 -32 -44 -33 -44 -165 -273 -205
-356 -56 -118 -75 -162 -113 -260 -17 -47 -35 -92 -39 -100 -5 -8 -18 -51 -30
-95 -13 -44 -29 -98 -36 -120 -23 -66 -75 -292 -75 -322 0 -15 -7 -64 -14
-108 -24 -131 -40 -391 -33 -542 9 -190 24 -364 36 -426 6 -29 15 -81 21 -117
14 -83 48 -233 65 -285 7 -22 20 -67 30 -100 21 -73 33 -106 75 -210 50 -125
55 -136 87 -205 52 -111 74 -154 93 -185 10 -16 28 -48 40 -70 21 -37 93 -147
193 -290 236 -340 638 -696 1020 -904 75 -41 111 -59 242 -122 86 -41 236 -98
340 -130 50 -15 101 -31 115 -37 24 -10 83 -23 255 -56 44 -8 116 -22 160 -30
95 -19 360 -25 625 -15 184 6 243 14 395 50 44 10 103 23 130 28 28 6 69 15
93 21 23 5 59 14 80 19 32 8 166 55 257 90 146 56 470 218 516 257 8 8 19 14
23 14 5 0 25 14 46 30 21 17 41 30 44 30 15 0 288 214 371 290 188 174 273
268 421 465 95 127 136 188 167 245 11 19 31 53 46 75 39 59 156 300 196 405
10 25 21 54 26 65 13 30 38 103 60 175 11 36 24 73 29 82 5 9 13 36 16 60 4
24 11 48 15 54 5 6 13 37 18 70 10 64 24 141 47 245 8 37 14 93 14 125 0 33 5
120 12 194 9 105 8 184 -1 354 -7 121 -17 245 -21 275 -18 116 -43 247 -57
296 -8 27 -18 68 -22 90 -8 45 -27 104 -47 153 -8 18 -14 40 -14 49 0 14 -33
101 -102 268 -16 38 -57 125 -91 193 -65 129 -70 138 -101 187 -11 17 -40 62
-65 100 -43 67 -148 215 -161 225 -3 3 -33 39 -65 80 -65 81 -218 246 -275
295 -19 16 -69 61 -110 99 -86 79 -241 198 -321 247 -30 18 -56 36 -59 39 -26
33 -465 261 -560 291 -14 4 -50 17 -80 29 -30 12 -68 26 -85 30 -16 5 -52 15
-80 24 -27 8 -70 20 -95 26 -25 7 -68 18 -96 26 -28 8 -62 14 -77 14 -14 0
-38 5 -53 11 -28 10 -105 22 -244 38 -115 14 -399 19 -555 10z m485 -685 c4
-16 32 -82 63 -145 31 -64 57 -119 57 -124 0 -5 7 -16 16 -26 24 -26 8 -42
-21 -23 -29 19 -55 12 -55 -14 0 -28 18 -39 90 -53 81 -15 130 -40 171 -87 60
-68 70 -122 45 -237 -29 -133 -103 -251 -263 -417 l-65 -68 6 -417 c3 -230 7
-537 8 -683 1 -146 3 -271 6 -277 6 -17 55 -16 99 2 19 8 42 15 50 15 8 0 29
6 46 14 18 8 41 16 52 19 97 26 273 109 290 138 12 18 5 381 -10 564 -26 318
-38 600 -42 1026 -4 411 -5 418 -28 475 l-24 59 26 35 c38 51 94 113 115 128
16 12 20 9 38 -33 11 -26 20 -57 20 -70 0 -14 6 -39 14 -57 7 -18 20 -58 29
-88 22 -80 47 -169 63 -219 16 -50 18 -117 5 -125 -5 -3 -21 12 -36 34 -51 73
-57 59 -50 -117 4 -87 11 -221 16 -298 5 -77 13 -255 19 -395 5 -140 14 -299
20 -353 29 -278 6 -452 -83 -625 -47 -94 -113 -161 -207 -211 -139 -74 -186
-93 -310 -122 -144 -34 -132 -26 -152 -104 -9 -39 -18 -79 -18 -91 0 -27 -55
-132 -84 -162 -30 -31 -59 -21 -48 17 4 14 7 78 7 141 l0 115 -25 -1 c-14 -1
-45 -6 -70 -12 -25 -6 -94 -23 -155 -38 -60 -15 -128 -29 -150 -33 -39 -6 -40
-7 -38 -47 1 -23 13 -75 27 -118 23 -66 26 -94 26 -203 0 -233 -56 -333 -260
-468 -61 -40 -81 -52 -107 -64 -12 -6 -39 -21 -60 -34 -21 -13 -63 -34 -93
-46 -30 -13 -77 -33 -105 -46 -71 -32 -191 -80 -250 -100 -27 -10 -63 -23 -80
-30 -57 -23 -110 -42 -185 -66 -41 -13 -81 -28 -88 -34 -29 -25 33 -200 96
-270 98 -108 279 -186 399 -172 201 24 259 38 483 112 180 59 170 55 365 153
102 51 235 138 399 259 55 40 116 131 116 172 0 17 -10 41 -23 56 -24 28 -32
30 -187 40 -47 3 -111 13 -143 22 -76 21 -119 71 -143 164 -16 60 -15 69 1
139 23 104 45 147 104 212 141 155 288 182 394 75 42 -43 117 -180 117 -215 0
-29 31 -113 44 -118 19 -7 177 13 189 25 24 24 -1 230 -39 319 -8 18 -14 37
-14 43 0 16 -60 99 -98 136 -33 33 -34 33 -27 98 4 38 12 65 19 65 14 -1 88
-100 122 -164 54 -101 103 -299 104 -413 0 -51 1 -53 28 -53 16 0 37 7 48 15
10 8 26 15 34 15 8 0 58 28 110 63 80 52 96 67 98 92 6 47 -31 155 -106 315
-17 36 -38 88 -46 115 -40 134 -46 156 -46 184 0 16 6 42 14 58 18 35 33 70
46 106 14 39 42 34 77 -15 17 -24 40 -52 50 -63 34 -36 83 -108 83 -122 0 -8
-11 -13 -29 -13 -17 0 -32 -4 -36 -9 -3 -5 9 -49 25 -98 53 -151 61 -185 71
-273 19 -184 -6 -298 -91 -398 -87 -104 -182 -169 -334 -228 -43 -17 -50 -24
-67 -69 -10 -27 -19 -61 -19 -75 0 -14 -7 -70 -17 -126 -16 -94 -16 -104 0
-169 10 -38 27 -84 39 -102 29 -41 85 -67 130 -60 116 20 155 31 323 92 55 20
114 41 130 45 38 11 79 27 193 76 17 8 47 20 65 28 17 7 77 35 132 61 55 26
116 55 135 63 19 9 56 29 81 43 26 15 73 42 105 60 93 51 255 160 296 200 34
32 38 41 38 83 0 66 -31 115 -107 166 -68 47 -165 90 -201 90 -24 0 -40 -28
-49 -90 -8 -51 -40 -145 -74 -215 -34 -71 -51 -95 -69 -95 -10 0 -11 20 -5 93
24 297 21 401 -13 447 -11 14 -43 45 -73 69 -179 145 -489 453 -489 487 0 33
42 153 55 158 19 7 133 -18 165 -36 77 -43 86 -57 45 -76 -49 -22 -39 -36 120
-163 98 -78 129 -99 151 -99 15 0 16 30 10 363 -4 199 -11 414 -17 477 -5 63
-14 189 -19 280 -9 166 -19 269 -46 480 -8 63 -14 134 -14 156 0 23 -7 79 -15
125 -8 46 -16 118 -17 159 -3 71 -1 79 32 130 78 124 102 141 117 81 3 -14 19
-55 35 -89 15 -35 28 -71 28 -81 0 -9 6 -25 14 -36 7 -11 23 -47 34 -80 12
-33 31 -85 42 -115 34 -87 40 -112 34 -137 -8 -31 -20 -29 -51 7 -13 17 -30
30 -35 30 -12 0 -6 -266 11 -510 14 -182 29 -495 41 -805 5 -132 14 -274 19
-315 6 -41 11 -116 11 -166 0 -103 7 -114 90 -150 67 -28 167 -100 229 -164
32 -33 85 -116 106 -166 54 -128 71 -303 36 -372 -29 -56 -105 -140 -174 -192
-58 -43 -162 -110 -172 -110 -2 0 -24 -13 -48 -30 -25 -16 -89 -53 -143 -80
-55 -28 -106 -55 -114 -60 -18 -12 -209 -100 -216 -100 -2 0 -34 -14 -71 -31
-110 -50 -119 -54 -313 -134 -102 -42 -199 -83 -217 -90 -34 -15 -73 -77 -73
-115 0 -12 -6 -33 -14 -48 -16 -33 -29 -165 -20 -209 8 -39 37 -52 63 -29 10
9 21 16 24 16 11 0 8 -69 -3 -91 -14 -25 -71 -26 -94 0 -24 27 -43 137 -28
162 7 10 12 45 12 77 0 32 7 79 16 105 23 68 17 92 -25 94 -103 5 -166 41
-258 149 -49 57 -63 81 -74 128 -18 81 1 214 53 364 22 64 41 128 41 142 2 23
-1 25 -38 22 -52 -5 -62 -14 -69 -67 -19 -125 -122 -291 -259 -415 -69 -62
-80 -108 -53 -212 26 -101 63 -141 106 -118 16 9 20 21 20 65 0 64 19 74 45
24 15 -28 15 -35 0 -84 -21 -64 -54 -98 -94 -98 -37 0 -54 13 -79 62 -21 40
-52 173 -52 222 0 50 -21 48 -115 -12 -22 -14 -71 -43 -110 -64 -38 -21 -97
-55 -130 -75 -33 -19 -82 -47 -109 -60 -64 -32 -136 -102 -136 -132 0 -13 -7
-45 -15 -72 -8 -27 -15 -64 -15 -82 0 -45 35 -109 76 -140 33 -26 34 -26 65
-8 17 11 43 40 56 66 27 52 43 54 43 7 0 -44 -35 -105 -77 -134 -44 -29 -54
-30 -95 -9 -74 38 -103 126 -96 288 5 113 2 120 -42 104 -168 -64 -541 -100
-645 -63 -22 8 -48 15 -58 15 -9 0 -25 4 -35 9 -9 6 -44 22 -77 37 -137 62
-248 220 -291 414 -7 36 -17 81 -22 100 l-8 35 -89 6 c-94 6 -157 18 -264 50
-185 57 -309 160 -389 325 -50 102 -65 178 -59 295 8 130 29 288 44 314 12 22
74 243 73 263 0 7 7 27 16 44 24 46 6 52 -65 23 -35 -14 -92 -29 -127 -32
l-64 -6 -16 -54 c-18 -61 -12 -142 13 -180 22 -33 66 -31 91 4 17 23 22 25 36
14 32 -27 8 -128 -39 -169 -21 -18 -37 -22 -68 -20 -35 3 -44 8 -62 38 -18 31
-20 49 -17 175 1 77 7 155 13 173 9 27 7 37 -10 65 -91 146 -100 351 -20 500
6 10 23 45 40 77 16 32 65 106 109 165 44 59 80 114 80 123 0 8 -27 50 -60 93
-33 42 -60 85 -60 94 0 35 44 187 55 191 16 7 104 -49 132 -84 14 -17 22 -41
23 -64 0 -24 8 -47 24 -65 l24 -28 79 80 c43 44 116 122 162 172 46 51 87 90
92 87 5 -3 9 -40 9 -82 l0 -77 -78 -91 c-120 -141 -132 -157 -132 -174 0 -17
9 -26 90 -88 105 -79 134 -136 144 -281 4 -61 1 -100 -10 -140 -35 -125 -80
-184 -205 -267 -49 -32 -71 -53 -75 -72 -3 -15 -10 -38 -16 -52 -6 -14 -14
-41 -19 -60 -4 -19 -19 -75 -32 -125 -45 -171 -50 -201 -54 -338 -5 -155 6
-199 71 -301 69 -108 173 -161 366 -186 36 -5 94 -14 130 -19 87 -14 150 -13
180 2 19 9 29 28 43 82 10 39 25 93 32 120 40 147 40 154 -3 132 -210 -107
-394 -121 -520 -39 -63 41 -103 96 -132 182 -18 52 -21 80 -17 164 2 56 11
124 19 151 36 111 67 192 115 295 20 41 39 84 45 95 23 50 67 126 113 193 28
41 57 84 65 96 8 13 23 34 33 48 15 22 19 67 29 324 20 485 10 948 -22 1087
-5 23 -10 93 -10 155 0 104 2 117 26 160 62 112 77 133 86 124 31 -31 57 -556
62 -1280 5 -567 0 -529 86 -594 73 -56 117 -68 238 -68 59 0 125 5 147 11 22
6 56 14 75 19 105 25 231 86 368 177 61 41 112 77 112 80 0 3 -6 19 -14 36 -7
18 -18 44 -24 58 -14 36 -132 137 -317 274 -198 145 -190 140 -267 199 -174
137 -262 231 -352 380 l-48 79 16 50 c9 27 16 58 16 68 0 10 14 44 30 76 17
31 30 63 30 69 0 6 13 29 28 50 23 31 47 47 118 77 49 20 95 37 103 37 7 0 25
6 39 14 15 8 54 24 87 35 33 11 85 30 115 41 30 12 69 25 85 29 17 5 73 23
125 40 158 53 258 80 440 117 98 19 354 54 403 54 21 0 53 7 72 14 34 15 35
16 35 74 0 32 -5 84 -11 115 -11 53 -10 58 16 104 16 26 41 64 57 84 15 20 28
41 28 47 0 6 6 13 13 15 25 11 41 1 47 -29z m-521 -58 c26 -28 19 -51 -12 -42
-28 7 -67 -18 -96 -61 -26 -40 -61 -152 -61 -195 0 -47 -17 -40 -71 29 -60 78
-97 112 -121 113 -9 0 -30 12 -47 26 -25 21 -31 34 -31 64 0 46 30 81 61 73
21 -6 110 -100 137 -145 9 -16 19 -28 23 -28 4 0 19 24 35 53 15 28 33 62 39
74 33 63 104 82 144 39z m-855 -208 c-7 -24 -22 -70 -34 -102 -11 -33 -20 -72
-20 -89 0 -27 2 -29 33 -25 17 3 40 8 50 13 14 6 17 2 17 -25 0 -39 -13 -65
-53 -107 -42 -45 -94 -46 -125 -3 -27 35 -28 77 -5 168 21 88 102 212 137 212
12 0 12 -7 0 -42z m-307 -176 c27 -42 49 -111 56 -176 1 -10 -4 -21 -10 -23
-7 -3 -13 2 -13 10 0 8 -7 20 -15 27 -8 7 -15 20 -15 30 0 10 -20 46 -45 80
-49 66 -53 100 -12 100 16 0 32 -15 54 -48z m2873 -422 c51 -36 90 -142 71
-191 -6 -16 -26 -31 -58 -43 -26 -10 -72 -34 -100 -52 -57 -37 -66 -61 -42
-121 27 -67 48 -202 69 -436 10 -120 4 -261 -11 -251 -5 3 -9 16 -9 28 0 13
-7 40 -15 59 -8 20 -15 51 -15 68 0 32 -17 139 -46 289 -8 42 -14 93 -14 115
0 22 -7 65 -15 95 -20 75 -19 134 4 178 15 30 31 42 78 60 32 13 69 31 82 41
24 18 24 20 7 45 -25 40 -43 42 -76 11 -46 -44 -67 -8 -34 58 36 71 71 84 124
47z m-3461 -58 c69 -68 70 -77 15 -153 -26 -35 -60 -79 -76 -97 -15 -18 -28
-36 -28 -40 0 -5 25 -37 55 -72 30 -36 55 -70 55 -77 0 -15 -99 -163 -119
-179 -12 -9 -31 -1 -90 41 -42 28 -77 58 -79 66 -2 13 22 56 89 159 36 56 31
98 -19 155 -23 26 -42 52 -42 58 0 5 30 50 66 98 82 110 98 114 173 41z m4315
-494 c3 -18 6 -154 5 -301 0 -257 3 -286 32 -364 13 -35 46 -28 96 18 41 38
46 40 61 25 13 -13 16 -41 17 -159 0 -136 -1 -144 -27 -194 -49 -93 -109 -109
-177 -48 -51 47 -77 110 -106 263 -20 102 -25 159 -25 292 0 163 9 237 46 364
8 26 14 55 14 63 0 24 30 73 44 73 8 0 16 -15 20 -32z m330 -294 c25 -10 19
-34 -9 -34 -28 0 -49 -28 -60 -77 -3 -17 -13 -37 -21 -44 -12 -10 -20 -6 -45
24 -17 21 -36 37 -43 37 -21 0 -48 37 -44 62 5 40 42 35 74 -11 33 -46 49 -51
58 -18 7 28 42 67 61 67 7 0 20 -3 29 -6z m-2133 -146 c0 -29 0 -74 -1 -99 -2
-60 40 -107 56 -64 8 21 31 19 44 -5 14 -27 -2 -96 -31 -126 -41 -44 -82 -27
-114 49 -20 48 -20 192 0 227 8 14 14 35 15 48 0 13 6 22 15 22 11 0 15 -13
16 -52z m-1643 -28 c33 -22 64 -40 67 -40 17 0 65 -47 65 -63 0 -23 -104 -165
-127 -174 -9 -3 -23 -1 -32 5 -9 6 -34 21 -56 32 -22 12 -59 38 -83 57 l-43
35 27 46 c15 26 37 58 49 72 12 14 28 35 34 48 16 30 27 28 99 -18z m3901
-609 c40 -25 -38 -93 -336 -294 -195 -131 -233 -153 -233 -133 0 15 125 124
235 205 65 48 187 145 248 198 38 34 61 40 86 24z m-69 -296 c0 -8 -14 -58
-31 -111 -18 -58 -31 -121 -32 -158 -2 -55 0 -61 19 -64 11 -2 27 4 34 13 7 8
26 15 42 15 33 0 33 -2 9 -94 -13 -53 -76 -115 -123 -123 -32 -5 -41 -1 -68
25 -29 29 -30 34 -30 114 0 96 17 163 65 263 53 109 115 173 115 120z m-1173
-558 c-5 -33 -1 -43 20 -63 28 -26 25 -57 -10 -75 -17 -10 -24 -8 -39 11 -21
25 -23 68 -7 119 7 20 13 42 15 49 2 7 9 10 15 6 7 -4 9 -22 6 -47z m-49 -426
c29 -25 28 -35 -4 -27 -59 15 -143 -34 -169 -98 -27 -66 -32 -71 -55 -68 -12
1 -39 15 -59 31 -50 39 -88 57 -141 66 -55 9 -80 24 -80 49 0 26 28 56 52 56
30 0 119 -46 156 -80 18 -16 37 -30 41 -30 4 0 25 18 46 41 22 22 56 49 75 59
46 25 111 26 138 1z m-2010 -96 c56 -28 144 -127 189 -212 56 -103 91 -222 79
-267 -9 -38 -28 -31 -50 17 -37 80 -120 192 -203 274 -75 75 -83 86 -83 121 0
30 21 82 34 82 2 0 17 -7 34 -15z m-1296 -507 c3 -100 5 -113 21 -116 10 -2
27 4 37 13 17 16 19 15 29 -2 23 -45 -13 -141 -56 -145 -41 -3 -54 4 -73 42
-27 52 -28 202 -3 273 29 80 42 61 45 -65z m3856 40 c14 -14 16 -48 3 -48 -5
0 -15 7 -22 16 -10 13 -26 15 -79 11 -36 -3 -78 -8 -95 -12 l-30 -6 28 25 c25
23 36 26 106 26 46 0 82 -5 89 -12z m-18 -152 c0 -8 -7 -21 -15 -30 -8 -8 -15
-18 -15 -23 -1 -13 -37 -53 -48 -53 -5 0 -13 -7 -16 -16 -4 -9 -9 -14 -12 -11
-5 5 49 92 67 107 3 3 8 13 12 23 8 21 27 23 27 3z m-369 -123 c35 -21 33 -37
-7 -41 -65 -8 -102 -86 -90 -193 7 -60 7 -61 -16 -54 -13 4 -43 19 -68 34 -60
35 -105 51 -163 60 -26 4 -53 13 -59 19 -14 14 -13 81 2 96 15 15 116 -22 168
-61 23 -18 46 -33 50 -33 4 0 16 28 27 63 21 69 69 127 105 127 12 0 35 -8 51
-17z m-1016 -168 c74 -41 157 -98 168 -117 15 -24 -7 -68 -68 -135 l-53 -58
-63 32 c-35 18 -88 46 -117 63 -29 16 -57 30 -63 30 -5 0 -53 -40 -105 -90
-54 -50 -104 -90 -115 -90 -11 0 -58 26 -105 58 -47 31 -96 64 -110 72 -13 8
-24 23 -24 32 0 10 37 54 81 98 79 79 82 80 105 65 13 -8 28 -15 34 -15 7 0
39 -21 73 -47 34 -25 67 -50 73 -55 13 -9 21 -1 114 114 79 98 77 97 175 43z
m-1236 -199 c23 -25 15 -43 -14 -32 -24 9 -43 -3 -66 -42 -26 -43 -59 -128
-59 -154 0 -34 -17 -25 -65 34 -30 36 -69 70 -97 84 -43 22 -48 28 -48 58 0
35 21 66 45 66 16 0 82 -72 97 -106 15 -33 39 -27 60 16 25 51 75 100 102 100
12 0 33 -11 45 -24z"/>
<path d="M4726 7518 c-10 -88 -7 -286 5 -294 15 -9 64 40 120 124 51 75 63
128 39 173 -16 28 -63 49 -113 49 l-44 0 -7 -52z"/>
<path d="M4360 7536 c-36 -8 -99 -18 -140 -25 -134 -20 -144 -21 -225 -37
-233 -45 -226 -44 -387 -89 -29 -8 -80 -21 -113 -30 -33 -9 -71 -21 -85 -27
-13 -5 -51 -18 -85 -29 -166 -55 -325 -138 -325 -169 0 -22 78 -76 132 -91 44
-11 47 -26 13 -63 -53 -57 -33 -81 218 -265 90 -66 205 -140 266 -170 163 -83
290 -281 291 -455 0 -101 -54 -233 -123 -300 -111 -107 -250 -177 -547 -275
-53 -17 -107 -31 -122 -31 -14 0 -45 -7 -68 -15 -58 -20 -170 -19 -233 3 -63
22 -124 80 -162 156 -17 33 -35 61 -41 63 -23 7 -195 -275 -248 -407 -10 -25
-24 -58 -31 -75 -20 -47 -45 -135 -45 -160 0 -13 -5 -46 -12 -74 -10 -47 -9
-55 16 -114 31 -73 69 -115 123 -134 44 -15 121 -17 155 -4 13 4 50 17 83 27
137 42 260 116 395 240 217 197 370 293 647 406 77 31 97 48 73 63 -16 10 -12
49 14 122 13 37 27 80 30 96 6 24 36 40 36 19 0 -4 7 -17 15 -27 8 -11 29 -38
45 -59 17 -22 33 -57 36 -78 4 -22 14 -49 24 -60 17 -21 20 -21 101 -8 46 7
116 16 155 19 38 4 76 11 84 16 8 5 32 12 55 16 57 11 137 39 158 57 16 14 17
56 17 619 0 536 -2 604 -16 610 -20 7 -51 -23 -128 -122 -77 -100 -96 -130
-96 -152 0 -10 27 -45 60 -78 38 -38 60 -68 60 -82 0 -31 -98 -163 -120 -163
-23 0 -155 87 -198 130 -18 17 -32 42 -32 55 0 13 38 80 85 150 103 153 110
163 251 340 61 77 115 149 121 160 10 21 1 305 -14 440 l-8 70 -45 2 c-25 1
-74 -4 -110 -11z m-283 -321 c10 -14 41 -56 68 -92 l50 -66 0 -83 c0 -107 -19
-137 -88 -142 -28 -2 -58 3 -77 13 -37 19 -50 13 -50 -24 0 -50 -66 -111 -120
-111 -34 0 -118 64 -120 91 0 4 -12 28 -27 55 -40 72 -93 205 -93 236 0 51 47
48 73 -5 31 -62 77 -167 77 -175 0 -21 53 -82 71 -82 58 0 117 74 105 132 -3
16 -31 67 -61 113 -60 91 -73 145 -35 145 21 0 24 -3 96 -133 46 -84 107 -147
140 -147 23 0 44 31 44 66 0 32 -26 78 -92 163 -10 13 -18 34 -18 47 0 33 34
32 57 -1z"/>
<path d="M1960 5943 c-74 -76 -104 -115 -132 -173 -45 -93 -56 -151 -33 -174
27 -26 70 -20 200 28 50 18 254 123 275 140 8 7 23 16 33 19 25 9 31 33 18 75
-8 28 -28 49 -75 84 -62 45 -159 98 -180 98 -6 0 -54 -44 -106 -97z"/>
<path d="M3710 5119 c-251 -110 -368 -174 -521 -285 -124 -91 -170 -144 -201
-234 -40 -116 -57 -181 -60 -235 -3 -50 -3 -50 30 -53 18 -2 76 10 128 27 52
17 104 31 114 31 10 0 21 4 24 9 3 4 38 18 78 31 87 26 202 74 316 129 45 23
85 41 88 41 12 0 161 96 224 144 36 27 82 69 102 93 36 42 37 45 24 76 -8 18
-28 64 -44 104 -42 100 -106 183 -141 182 -14 0 -87 -27 -161 -60z m-239 -300
c3 -35 8 -71 12 -79 3 -8 11 -28 17 -44 10 -27 12 -28 29 -12 22 20 47 21 55
0 8 -20 8 -88 0 -109 -10 -25 -56 -45 -77 -33 -47 26 -91 215 -73 312 11 57
30 38 37 -35z"/>
<path d="M4510 4732 c-112 -55 -62 -92 125 -92 63 0 115 3 115 7 0 18 -56 76
-90 93 -52 27 -84 25 -150 -8z"/>
</g>
</svg>
